<svg xmlns="http://www.w3.org/2000/svg" viewBox="0 0 430.81 427.22"><title>business_role</title><g id="Background_Complete" data-name="Background Complete"><path d="M111.95,232.31l3.7,7.51a1.3,1.3,0,0,0,1,.71l8.28,1.2a1.3,1.3,0,0,1,.72,2.22l-6,5.84a1.3,1.3,0,0,0-.37,1.15l1.41,8.25a1.3,1.3,0,0,1-1.88,1.37l-7.41-3.89a1.3,1.3,0,0,0-1.21,0l-7.41,3.89a1.3,1.3,0,0,1-1.89-1.37l1.41-8.25a1.3,1.3,0,0,0-.37-1.15l-6-5.84a1.3,1.3,0,0,1,.72-2.22l8.28-1.2a1.3,1.3,0,0,0,1-.71l3.7-7.51A1.3,1.3,0,0,1,111.95,232.31Z" transform="translate(-29.87 -38.34)" fill="#e0e0e0"/><path d="M78.08,188.93l2.56,5.19a.9.9,0,0,0,.68.49l5.73.83a.9.9,0,0,1,.5,1.53l-4.15,4a.9.9,0,0,0-.26.8l1,5.71a.9.9,0,0,1-1.3.95l-5.13-2.69a.9.9,0,0,0-.84,0l-5.13,2.69a.9.9,0,0,1-1.3-.95l1-5.71a.9.9,0,0,0-.26-.8L67,197a.9.9,0,0,1,.5-1.53l5.73-.83a.9.9,0,0,0,.68-.49l2.56-5.19A.9.9,0,0,1,78.08,188.93Z" transform="translate(-29.87 -38.34)" fill="#e0e0e0"/><path d="M263.48,54.77l1.78,3.6a.62.62,0,0,0,.47.34l4,.58a.62.62,0,0,1,.35,1.06l-2.87,2.8a.62.62,0,0,0-.18.55l.68,4a.62.62,0,0,1-.9.66l-3.55-1.87a.62.62,0,0,0-.58,0l-3.55,1.87a.62.62,0,0,1-.9-.66l.68-4a.62.62,0,0,0-.18-.55l-2.87-2.8a.62.62,0,0,1,.35-1.06l4-.58a.62.62,0,0,0,.47-.34l1.78-3.6A.62.62,0,0,1,263.48,54.77Z" transform="translate(-29.87 -38.34)" fill="#e0e0e0"/><path d="M418.52,240.27l1.78,3.6a.62.62,0,0,0,.47.34l4,.58a.62.62,0,0,1,.35,1.06l-2.87,2.8a.62.62,0,0,0-.18.55l.68,4a.62.62,0,0,1-.9.66l-3.55-1.87a.62.62,0,0,0-.58,0l-3.55,1.87a.62.62,0,0,1-.9-.66l.68-4a.62.62,0,0,0-.18-.55l-2.87-2.8a.62.62,0,0,1,.35-1.06l4-.58a.62.62,0,0,0,.47-.34l1.78-3.6A.62.62,0,0,1,418.52,240.27Z" transform="translate(-29.87 -38.34)" fill="#e0e0e0"/><path d="M377.47,223.69l2.93,5.94a1,1,0,0,0,.77.56l6.55,1a1,1,0,0,1,.57,1.75l-4.74,4.62a1,1,0,0,0-.3.91l1.12,6.52a1,1,0,0,1-1.49,1.08L377,243a1,1,0,0,0-1,0L370.21,246a1,1,0,0,1-1.49-1.08l1.12-6.52a1,1,0,0,0-.3-.91l-4.74-4.62a1,1,0,0,1,.57-1.75l6.55-1a1,1,0,0,0,.77-.56l2.93-5.94A1,1,0,0,1,377.47,223.69Z" transform="translate(-29.87 -38.34)" fill="#e0e0e0"/><path d="M78.84,296.22,81,300.5a.74.74,0,0,0,.56.41l4.73.69a.74.74,0,0,1,.41,1.26l-3.42,3.33a.74.74,0,0,0-.21.66l.81,4.71a.74.74,0,0,1-1.08.78l-4.23-2.22a.74.74,0,0,0-.69,0l-4.23,2.22a.74.74,0,0,1-1.08-.78l.81-4.71a.74.74,0,0,0-.21-.66l-3.42-3.33a.74.74,0,0,1,.41-1.26l4.73-.69a.74.74,0,0,0,.56-.41l2.11-4.28A.74.74,0,0,1,78.84,296.22Z" transform="translate(-29.87 -38.34)" fill="#e0e0e0"/><rect x="168.16" y="59.67" width="11.48" height="57.12" transform="matrix(1, -0.01, 0.01, 1, -30.34, -37.41)" fill="#e0e0e0"/><rect x="68.65" y="59.87" width="29.73" height="31.53" transform="translate(-30.27 -37.89) rotate(-0.31)" fill="#ebebeb"/><rect x="98.23" y="59.71" width="29.73" height="31.53" transform="matrix(1, -0.01, 0.01, 1, -30.27, -37.74)" fill="#f5f5f5"/><path d="M68.61,68.66q29.63.24,59.31-.27a.32.32,0,0,0,0-.63c-19.75-.11-39.56,0-59.31.36a.27.27,0,0,0,0,.54Z" transform="translate(-29.87 -38.34)" fill="#e0e0e0"/><rect x="50.1" y="90.94" width="54.01" height="25.7" transform="translate(-30.43 -37.93) rotate(-0.31)" fill="#ebebeb"/><rect x="103.85" y="90.65" width="54.01" height="25.7" transform="translate(-30.42 -37.64) rotate(-0.31)" fill="#f5f5f5"/><path d="M50.07,98.23c35.88.41,71.88,0,107.76-.53a.32.32,0,0,0,0-.63c-35.88-.19-71.88-.17-107.76.62a.27.27,0,0,0,0,.54Z" transform="translate(-29.87 -38.34)" fill="#e0e0e0"/><rect y="78.44" width="209.23" height="9.21" fill="#e0e0e0"/><rect x="34.26" y="82.87" width="8.49" height="31.41" fill="#e0e0e0"/><rect x="161.05" y="82.87" width="8.49" height="31.41" fill="#e0e0e0"/><rect x="179.42" y="38.37" width="11.48" height="78.56" transform="matrix(1, -0.01, 0.01, 1, -30.28, -37.35)" fill="#ebebeb"/><rect x="190.95" y="53.01" width="17.84" height="63.66" transform="translate(-30.32 -37.27) rotate(-0.31)" fill="#f5f5f5"/><ellipse cx="169.71" cy="26.89" rx="8.92" ry="0.31" fill="#e0e0e0"/><ellipse cx="169.71" cy="24.21" rx="8.92" ry="0.31" fill="#e0e0e0"/><ellipse cx="169.71" cy="68.7" rx="8.92" ry="0.31" fill="#e0e0e0"/><ellipse cx="169.71" cy="66.03" rx="8.92" ry="0.31" fill="#e0e0e0"/><ellipse cx="170" cy="45.85" rx="0.31" ry="14.34" fill="#e0e0e0"/><rect x="178.82" y="30.26" width="19.41" height="48.05" fill="#ebebeb"/><circle cx="154.9" cy="13.41" r="3.3" fill="#e0e0e0"/><rect x="153.89" y="22.49" width="2.04" height="46.73" fill="#e0e0e0"/><rect x="287.51" y="39.07" width="141.14" height="126.27" fill="#fafafa"/><path d="M458.53,203.68s0-.81,0-2.34,0-3.81,0-6.77c0-5.93,0-14.59-.08-25.63,0-22.06-.1-53.59-.16-91.53l.32.32-141.13.06h0l.38-.38c0,45.94,0,89.17,0,126.27l-.33-.33,102.08.17,28.79.09,7.62,0,2,0,.68,0-.64,0-1.93,0-7.56,0-28.72.09-102.3.17h-.33v-.33c0-37.1,0-80.33,0-126.27V77h.39l141.13.06h.32v.32c-.07,38-.12,69.62-.16,91.73l-.08,25.56c0,2.92,0,5.17,0,6.7S458.53,203.68,458.53,203.68Z" transform="translate(-29.87 -38.34)" fill="#e0e0e0"/><ellipse cx="325.04" cy="61.5" rx="16.59" ry="0.38" fill="#e0e0e0"/><path d="M431.31,109.32c0,.21-20.41.38-45.58.38s-45.58-.17-45.58-.38,20.41-.38,45.58-.38S431.31,109.12,431.31,109.32Z" transform="translate(-29.87 -38.34)" fill="#e0e0e0"/><rect x="308.69" y="87.04" width="5.95" height="5.95" fill="#e0e0e0"/><rect x="323.33" y="87.04" width="5.95" height="5.95" fill="#e0e0e0"/><rect x="338.24" y="86.77" width="5.95" height="5.95" fill="#e0e0e0"/><rect x="352.6" y="87.04" width="5.95" height="5.95" fill="#e0e0e0"/><rect x="367.24" y="87.04" width="5.95" height="5.95" fill="#e0e0e0"/><rect x="381.88" y="87.04" width="5.95" height="5.95" fill="#e0e0e0"/><rect x="396.51" y="87.04" width="5.95" height="5.95" fill="#ebebeb"/><rect x="308.69" y="99.68" width="5.95" height="5.95" fill="#ebebeb"/><rect x="323.33" y="99.68" width="5.95" height="5.95" fill="#e0e0e0"/><rect x="337.97" y="99.68" width="5.95" height="5.95" fill="#ebebeb"/><rect x="352.6" y="99.68" width="5.95" height="5.95" fill="#e0e0e0"/><rect x="367.24" y="99.68" width="5.95" height="5.95" fill="#e0e0e0"/><rect x="382.15" y="99.41" width="5.95" height="5.95" fill="#e0e0e0"/><rect x="396.51" y="99.68" width="5.95" height="5.95" fill="#e0e0e0"/><rect x="308.69" y="112.33" width="5.95" height="5.95" fill="#e0e0e0"/><rect x="323.6" y="112.06" width="5.95" height="5.95" fill="#e0e0e0"/><rect x="337.97" y="112.33" width="5.95" height="5.95" fill="#e0e0e0"/><rect x="352.6" y="112.33" width="5.95" height="5.95" fill="#ebebeb"/><rect x="367.24" y="112.33" width="5.95" height="5.95" fill="#e0e0e0"/><rect x="381.88" y="112.33" width="5.95" height="5.95" fill="#e0e0e0"/><rect x="396.51" y="112.33" width="5.95" height="5.95" fill="#e0e0e0"/><rect x="308.69" y="124.97" width="5.95" height="5.95" fill="#e0e0e0"/><rect x="323.33" y="124.97" width="5.95" height="5.95" fill="#e0e0e0"/><rect x="337.97" y="124.97" width="5.95" height="5.95" fill="#e0e0e0"/><rect x="352.87" y="124.7" width="5.95" height="5.95" fill="#e0e0e0"/><rect x="367.24" y="124.97" width="5.95" height="5.95" fill="#e0e0e0"/><rect x="381.88" y="124.97" width="5.95" height="5.95" fill="#ebebeb"/><rect x="396.51" y="124.97" width="5.95" height="5.95" fill="#e0e0e0"/><rect x="308.69" y="137.61" width="5.95" height="5.95" fill="#e0e0e0"/><rect x="323.33" y="137.61" width="5.95" height="5.95" fill="#ebebeb"/><rect x="337.97" y="137.61" width="5.95" height="5.95" fill="#e0e0e0"/><rect x="352.6" y="137.61" width="5.95" height="5.95" fill="#e0e0e0"/><rect x="367.24" y="137.61" width="5.95" height="5.95" fill="#e0e0e0"/><rect x="382.15" y="137.34" width="5.95" height="5.95" fill="#e0e0e0"/><rect x="396.51" y="137.61" width="5.95" height="5.95" fill="#e0e0e0"/><path d="M48.49,399.65v36.77H42.35v4h6.14V465H163.24V442.62h-8.5v-4.88h8.5v-7.32H167v-3.33h-4.49V399.65Z" transform="translate(-29.87 -38.34)" fill="#ebebeb"/><polygon points="102.9 361.41 102.9 426.26 133.37 426.26 133.37 403.87 124.87 403.87 124.87 399.4 133.37 399.56 133.37 392.24 137.22 392.25 137.15 388.46 132.66 388.35 132.66 361.31 102.9 361.41" fill="#e0e0e0"/><path d="M134.94,439.88c0,.23-20.76.41-46.37.41s-46.38-.18-46.38-.41,20.76-.41,46.38-.41S134.94,439.65,134.94,439.88Z" transform="translate(-29.87 -38.34)" fill="#e0e0e0"/><path d="M134.94,436.14c0,.23-20.76.41-46.37.41s-46.38-.18-46.38-.41,20.76-.41,46.38-.41S134.94,435.92,134.94,436.14Z" transform="translate(-29.87 -38.34)" fill="#e0e0e0"/><path d="M140.9,426.09c0,.23-20.76.41-46.37.41s-46.38-.18-46.38-.41,20.76-.41,46.38-.41S140.9,425.87,140.9,426.09Z" transform="translate(-29.87 -38.34)" fill="#e0e0e0"/><path d="M141.47,453.48c0,.23-20.76.41-46.37.41s-46.38-.18-46.38-.41,20.76-.41,46.38-.41S141.47,453.26,141.47,453.48Z" transform="translate(-29.87 -38.34)" fill="#e0e0e0"/><path d="M63.38,338.38v34.85H57.56V377h5.82v23.32H172.13V379.11h-8.06v-4.62h8.06v-6.93h3.58v-3.15h-4.25v-26Z" transform="translate(-29.87 -38.34)" fill="#f5f5f5"/><polygon points="113.38 300.14 113.38 361.61 142.26 361.61 142.26 340.38 134.21 340.38 134.21 336.15 142.26 336.29 142.26 329.36 145.91 329.36 145.84 325.78 141.59 325.68 141.59 300.04 113.38 300.14" fill="#e0e0e0"/><path d="M145.31,376.51c0,.21-19.68.39-43.95.39s-44-.17-44-.39,19.67-.39,44-.39S145.31,376.3,145.31,376.51Z" transform="translate(-29.87 -38.34)" fill="#e0e0e0"/><path d="M145.31,373c0,.21-19.68.39-43.95.39s-44-.17-44-.39,19.67-.39,44-.39S145.31,372.76,145.31,373Z" transform="translate(-29.87 -38.34)" fill="#e0e0e0"/><path d="M151,363.45c0,.21-19.68.39-43.95.39s-44-.17-44-.39,19.67-.39,44-.39S151,363.23,151,363.45Z" transform="translate(-29.87 -38.34)" fill="#e0e0e0"/><path d="M151.5,389.41c0,.21-19.68.39-43.95.39s-44-.17-44-.39,19.67-.39,44-.39S151.5,389.19,151.5,389.41Z" transform="translate(-29.87 -38.34)" fill="#e0e0e0"/><path d="M395.18,353.56c-5.95-3.07-13-3.47-19.56-2.38-3.55.59-7.25,1.65-9.66,4.31s-2.87,7.35-.1,9.64c1.65,1.36,4,1.57,6.09,1.55,5.17-.06,10.91-1,15,2.14,2.36,1.77,3.92,4.72,6.74,5.6s5.87-.77,7.33-3.26a11.38,11.38,0,0,0,.83-8.4A12.82,12.82,0,0,0,395.18,353.56Z" transform="translate(-29.87 -38.34)" fill="#ebebeb"/><path d="M408.8,327.26c-3.64,5.19-10.71,3.47-14,.3s-4.66-7.77-5.92-12.15c-2.88-10-5.79-20.52-3.64-30.71a17.07,17.07,0,0,1,3.92-8.35,8.92,8.92,0,0,1,8.45-2.81c3.56.94,5.78,4.43,7.38,7.75a73.21,73.21,0,0,1,7.23,31.42c0,5.06-.58,10.37-3.43,14.55" transform="translate(-29.87 -38.34)" fill="#ebebeb"/><path d="M418.79,334.71c-3.95-4.69-4.7-11.52-2.94-17.39s5.73-10.87,10.3-14.94a55.47,55.47,0,0,1,18.45-10.89,19.67,19.67,0,0,1,8.3-1.41,8.71,8.71,0,0,1,7,4.21c1.94,3.7.08,8.19-1.93,11.86a140.57,140.57,0,0,1-12.12,18.45c-3.63,4.68-7.79,9.3-13.33,11.42s-11.28,1.87-14.22-2" transform="translate(-29.87 -38.34)" fill="#ebebeb"/><path d="M409,405.62a11.31,11.31,0,0,1-.33-2.36l-.63-6.44a93,93,0,0,0-1.45-9.45,72.91,72.91,0,0,0-3.43-11.15,41.12,41.12,0,0,0-5.69-10.09,21.27,21.27,0,0,0-7.2-6,20.14,20.14,0,0,0-6.06-1.89,11.34,11.34,0,0,1-2.35-.34,11.06,11.06,0,0,1,2.39,0,18.37,18.37,0,0,1,6.32,1.65,21.23,21.23,0,0,1,7.59,6,40.16,40.16,0,0,1,5.9,10.29,68.17,68.17,0,0,1,3.41,11.33,79.86,79.86,0,0,1,1.26,9.57c.2,2.74.28,5,.32,6.48A11.07,11.07,0,0,1,409,405.62Z" transform="translate(-29.87 -38.34)" fill="#e0e0e0"/><path d="M408.61,400.66a4.68,4.68,0,0,1-.06-1.1c0-.82,0-1.86,0-3.13,0-2.72,0-6.65-.14-11.51-.24-9.71-1.08-20.17-2.69-34.91-1.53-13.86-3.58-30-5.75-40.48-.46-2.39-.93-4.53-1.37-6.41s-.78-3.51-1.12-4.82l-.73-3a4.67,4.67,0,0,1-.19-1.08,4.62,4.62,0,0,1,.38,1l.91,3c.4,1.3.82,2.92,1.29,4.79s1,4,1.52,6.39a355.39,355.39,0,0,1,6,37.56c1.62,14.77,2.35,28.22,2.41,38,.06,4.87,0,8.81-.17,11.53l-.19,3.13A4.63,4.63,0,0,1,408.61,400.66Z" transform="translate(-29.87 -38.34)" fill="#e0e0e0"/><path d="M408.54,374.72a20.84,20.84,0,0,1,0-3.27c.12-2.1.41-5.14,1-8.86a117,117,0,0,1,2.88-12.92,105.8,105.8,0,0,1,5.4-15.28c4.48-10.63,10.57-19.31,15.86-24.7a40.29,40.29,0,0,1,3.73-3.47c.57-.48,1.08-1,1.59-1.35l1.45-1a20.85,20.85,0,0,1,2.75-1.76c.16.21-3.9,2.6-9,8.05a85.78,85.78,0,0,0-15.46,24.61,120.78,120.78,0,0,0-5.43,15.14,131.36,131.36,0,0,0-3.07,12.79c-.68,3.69-1.07,6.69-1.3,8.78A21.1,21.1,0,0,1,408.54,374.72Z" transform="translate(-29.87 -38.34)" fill="#e0e0e0"/><polygon points="403.74 382.14 401.14 417.75 355.4 417.75 352.8 382.14 403.74 382.14" fill="#e0e0e0"/><rect x="347.34" y="368.1" width="60.82" height="14.04" fill="#e0e0e0"/><polygon points="408.16 416.39 408.16 420.28 405.3 420.28 348.34 420.28 348.34 416.39 408.16 416.39" fill="#ebebeb"/><polygon points="402.5 427.13 405.3 420.28 350.52 420.28 353.79 427.13 402.5 427.13" fill="#e0e0e0"/><path d="M383.52,432.12a1.47,1.47,0,0,0,.21.33l.68.91,2.66,3.41.12.15.11-.16,6.55-9.06h-.38l6.45,9.13.2.29.23-.27,7.64-9.1h-.44l.42.53,6.84,8.57.23.29.21-.3,6.45-9.13-.37,0,7.94,9,.14.16.11-.18,2.49-4.18.64-1.11a.22.22,0,1,0-.07,0l-.71,1.07-2.61,4.1.25,0-7.82-9.16-.2-.23-.18.25-6.51,9.08h.44l-6.82-8.58-.42-.53-.22-.27-.22.27-7.62,9.11.43,0-6.51-9.08-.19-.27-.19.27-6.41,9.15h.23l-2.77-3.32-.74-.86C383.62,432.21,383.53,432.11,383.52,432.12Z" transform="translate(-29.87 -38.34)" fill="#f5f5f5"/><ellipse cx="377.76" cy="381.9" rx="25.6" ry="0.28" fill="#f5f5f5"/><ellipse cx="377.67" cy="420.66" rx="27.82" ry="0.28" fill="#f5f5f5"/></g><g id="Table"><path d="M448.06,465.3c0,.14-88.68.26-198.05.26s-198.07-.12-198.07-.26S140.6,465,250,465,448.06,465.16,448.06,465.3Z" transform="translate(-29.87 -38.34)" fill="#263238"/></g><g id="Character_2" data-name="Character 2"><path d="M267.49,93.59c.43-7.51,5-12.14,11.52-16a23.48,23.48,0,0,1,21.67-1c4.54,2.16,8.52,5.86,13.52,6.5,8.22,1.06,16-6.56,24.07-4.65a10.69,10.69,0,0,1-.78,21c5.38.78,8.43,7.59,6.44,12.65s-7.64,8-13.08,8.12-10.67-2.1-15.37-4.83-9.1-6-14-8.36-10.55-3.72-15.81-2.32c-7.12,1.89-12.16,8.61-14,15.74s-1.06,14.66,0,21.94,2.51,14.63,1.82,22a2.73,2.73,0,0,1-1,2.26c-1.09.6-2.35-.43-3.15-1.38A108.1,108.1,0,0,1,249,128.42c-2.48-7.81-3.85-15.4-.87-23s13-14.89,19.35-11.79" transform="translate(-29.87 -38.34)" fill="#263238"/><path d="M260.56,129.91l12,74.24c2.25,13.86,11.26,27.26,33,22.71h0c18.58-5.37,17.2-18.74,14.78-35.21h0s20.44-5.32,18.61-26.1c-.88-10-4.39-30.58-7.78-49.12a38.86,38.86,0,0,0-42.12-31.66l-2,.2C265.61,88.39,256.54,108.54,260.56,129.91Z" transform="translate(-29.87 -38.34)" fill="#ffbf9d"/><path d="M320.38,191.64s-13,2.08-27.83-5.27c0,0,8.15,15.44,28.67,11.49Z" transform="translate(-29.87 -38.34)" fill="#ff9a6c"/><path d="M324.17,137.21a3,3,0,0,1-2.56,3.28,2.85,2.85,0,0,1-3.32-2.37,3,3,0,0,1,2.55-3.28A2.85,2.85,0,0,1,324.17,137.21Z" transform="translate(-29.87 -38.34)" fill="#263238"/><path d="M327.78,127.05c-.33.42-2.74-1-5.93-.68s-5.37,2.16-5.75,1.8c-.19-.16.12-.89,1.06-1.74a8.17,8.17,0,0,1,4.56-1.92,7.85,7.85,0,0,1,4.77,1C327.54,126.19,327.94,126.86,327.78,127.05Z" transform="translate(-29.87 -38.34)" fill="#263238"/><path d="M294.28,139.12a3,3,0,0,1-2.56,3.28A2.85,2.85,0,0,1,288.4,140a3,3,0,0,1,2.55-3.28A2.85,2.85,0,0,1,294.28,139.12Z" transform="translate(-29.87 -38.34)" fill="#263238"/><path d="M296.48,130.8c-.33.42-2.74-1-5.93-.68s-5.37,2.16-5.75,1.8c-.19-.16.11-.89,1.06-1.73a8.17,8.17,0,0,1,4.55-1.92,7.86,7.86,0,0,1,4.77,1C296.24,129.94,296.64,130.61,296.48,130.8Z" transform="translate(-29.87 -38.34)" fill="#263238"/><path d="M310.44,153.29c0-.18,1.92-.72,5.09-1.46.81-.17,1.56-.41,1.64-1a4.17,4.17,0,0,0-.79-2.36l-3-6c-4.23-8.49-7.38-15.51-7-15.68s4.05,6.58,8.29,15.08l2.94,6a4.74,4.74,0,0,1,.74,3.15,2.05,2.05,0,0,1-1.22,1.33,5.55,5.55,0,0,1-1.36.33C312.47,153.25,310.47,153.47,310.44,153.29Z" transform="translate(-29.87 -38.34)" fill="#263238"/><path d="M296,118.22c-.23.9-3.45.81-7.15,1.64s-6.62,2.15-7.2,1.42c-.26-.35.19-1.22,1.32-2.18A12.75,12.75,0,0,1,294,116.76C295.38,117.18,296.14,117.79,296,118.22Z" transform="translate(-29.87 -38.34)" fill="#263238"/><path d="M325.67,117.94c-.49.78-2.76.25-5.41.48s-4.83,1-5.42.27c-.26-.35,0-1.11.92-1.89a7.86,7.86,0,0,1,8.73-.61C325.5,116.84,325.89,117.56,325.67,117.94Z" transform="translate(-29.87 -38.34)" fill="#263238"/><path d="M263.8,145.11c-.37-.12-14.69-2.78-12.81,11.36s15.69,9.34,15.66,8.93S263.8,145.11,263.8,145.11Z" transform="translate(-29.87 -38.34)" fill="#ffbf9d"/><path d="M261.63,160.62c-.07,0-.22.21-.61.45a2.49,2.49,0,0,1-1.84.28c-1.57-.35-3.14-2.56-3.55-5.1a8.21,8.21,0,0,1,.22-3.62,2.87,2.87,0,0,1,1.6-2.14A1.27,1.27,0,0,1,259,151c.24.37.19.66.27.68s.27-.28.08-.85a1.59,1.59,0,0,0-.67-.81,1.88,1.88,0,0,0-1.41-.18,3.49,3.49,0,0,0-2.28,2.54,8.44,8.44,0,0,0-.33,4.06c.47,2.84,2.28,5.31,4.41,5.63a2.66,2.66,0,0,0,2.2-.67C261.65,161,261.68,160.63,261.63,160.62Z" transform="translate(-29.87 -38.34)" fill="#ff9a6c"/><path d="M329.52,97.06c-2.26-3.89-5.88-6.82-9.72-9.16A46.48,46.48,0,0,0,292,81a37.84,37.84,0,0,0-25.41,12.64,40,40,0,0,0-8.9,21.16,58.69,58.69,0,0,0,2.18,23c.93,3.28,2.19,6.65,4.78,8.87,1.62,1.38,4.23,2.14,5.78.68a5.68,5.68,0,0,0,1.32-3.44c1.63-11.22,3.14-23.27-1.93-33.42a32.74,32.74,0,0,1,8.87-10,17,17,0,0,1,12.72-3.06c6.52,1.31,11,7.07,16.52,10.85a30.13,30.13,0,0,0,27.24,3.32Z" transform="translate(-29.87 -38.34)" fill="#263238"/><path d="M311.73,167.94c-.08-.2-1.41.7-3.64.3a5.18,5.18,0,0,1-3.19-1.88,5.46,5.46,0,0,1-1-4.33,4.87,4.87,0,0,1,.37-1.12c.21-.33.16-.31.46-.33s.77.13,1.15.2l1.19.22c1.54.28,2.94.51,4.11.69,2.35.36,3.82.5,3.85.33s-1.38-.6-3.68-1.17c-1.15-.29-2.53-.61-4.06-.95l-1.18-.26a12.34,12.34,0,0,0-1.32-.25,1.59,1.59,0,0,0-1,.23,1.87,1.87,0,0,0-.61.73,5.84,5.84,0,0,0-.48,1.42,6.37,6.37,0,0,0,1.32,5.28,5.81,5.81,0,0,0,3.95,2,5.48,5.48,0,0,0,2.91-.49C311.51,168.29,311.77,168,311.73,167.94Z" transform="translate(-29.87 -38.34)" fill="#263238"/><path d="M343,81.37a3.77,3.77,0,0,1,.28.93,9.46,9.46,0,0,1,.09,2.79,13.06,13.06,0,0,1-5.13,8.69c-3.48,2.76-9,3.87-14.65,3s-11.48-3.55-17.49-6S294,86.63,288.43,87.65a22.33,22.33,0,0,0-12.61,7.22,29.87,29.87,0,0,0-5.39,8.44c-.91,2.21-1.22,3.5-1.31,3.48a3.8,3.8,0,0,1,.18-1,24,24,0,0,1,.8-2.66,28.34,28.34,0,0,1,5.24-8.74,22.72,22.72,0,0,1,13-7.62c5.77-1.1,12.15.62,18.18,3.11s11.7,5.23,17.27,6,10.78-.13,14.13-2.68A13,13,0,0,0,343,85,14.25,14.25,0,0,0,343,81.37Z" transform="translate(-29.87 -38.34)" fill="#455a64"/><path d="M250.13,124.47a10.05,10.05,0,0,1,.55-3.91A24.33,24.33,0,0,1,255,112a24.08,24.08,0,0,1,3.68-3.79,8.91,8.91,0,0,1,3.88-2,4.72,4.72,0,0,1,3,.33c.64.33.87.66.83.7a5.43,5.43,0,0,0-3.65-.39c-2.22.57-4.72,3-7,5.76a28.23,28.23,0,0,0-4.4,8.14C250.51,123,250.28,124.49,250.13,124.47Z" transform="translate(-29.87 -38.34)" fill="#455a64"/><path d="M253.88,136.71a10.92,10.92,0,0,1,.8-3.9,26.38,26.38,0,0,1,12.12-14.5,10.92,10.92,0,0,1,3.69-1.48,37.59,37.59,0,0,1-3.36,2A30.28,30.28,0,0,0,255.29,133,37.57,37.57,0,0,1,253.88,136.71Z" transform="translate(-29.87 -38.34)" fill="#455a64"/><path d="M330.08,216.82s15.17,19.57,18.82,26.92,29.81,88.56,29.81,88.56l-11.35,4.77Z" transform="translate(-29.87 -38.34)" fill="#455a64"/><polygon points="239.18 160.16 239.18 150.35 294.3 168.27 309.06 191.91 320.44 224.92 288.54 176.97 239.18 160.16" fill="#ebebeb"/><path d="M265.77,207.93s-23.39,28-22.88,46.16c.5,17.91,24.79,126.74,24.79,126.74l-5.88,19.45-6.37,64.82H387.93l-9.22-132.8c-1.47-.09-29-76.11-29-76.11l-30.82-42.8-50.75-18.29Z" transform="translate(-29.87 -38.34)" fill="#455a64"/><path d="M366.74,300.67s9.27-.37,14.11,1.79,8.93,1.08,12.36,7.78,7.42,9.72,8.26,19.87-10.12,33.66-17.36,37S366.74,300.67,366.74,300.67Z" transform="translate(-29.87 -38.34)" fill="#455a64"/><g opacity="0.3"><path d="M263.09,299.75s54.17,50.85,61.06,55.71,7.91,35.61,16.4,36.2,36-19.76,36-19.76l-81.49-76.77Z" transform="translate(-29.87 -38.34)"/></g><path d="M339.37,345.28s-11.78,15.08-13.13,18.85-2.66,6.29-1.22,7.55a3.67,3.67,0,0,0,4.13.86c1.92-.73,11.39-13.22,11.39-13.22s-12.56,17.91-13.13,21,1.89,4.59,4.77,4,8.36-8.64,8.36-8.64-7.77,9-6.13,10.53,3.53,1.71,5.69.63,7.65-8.19,7.65-8.19-3.78,4-1.71,5,2.25,1.1,4-.4,17.68-17,17.68-17l-10-6.85Z" transform="translate(-29.87 -38.34)" fill="#ffbf9d"/><path d="M344.2,354.49a21.42,21.42,0,0,1-1.85,2.53l-4.59,6c-1.81,2.33-3.5,4.4-4.77,5.86a16.69,16.69,0,0,1-2.16,2.27,21.13,21.13,0,0,1,1.88-2.5l4.64-5.95c1.8-2.33,3.46-4.42,4.72-5.89A16.51,16.51,0,0,1,344.2,354.49Z" transform="translate(-29.87 -38.34)" fill="#ff9a6c"/><ellipse cx="346.07" cy="369.36" rx="10.02" ry="0.26" transform="translate(-189.32 356.33) rotate(-49.73)" fill="#ff9a6c"/><ellipse cx="352.46" cy="373.64" rx="10.03" ry="0.26" transform="translate(-191 342.94) rotate(-47.52)" fill="#ff9a6c"/><path d="M272.94,225.34c7.61-1.61,17.27-2.29,24.63,1.88l40.19,36.26s56.65,63.55,58.87,67.1,5.21,24.46-3.37,35.12-18.22,6.56-29.23,4c-8.72-2-69.63-46.74-94.66-65.33a47.8,47.8,0,0,1-17.8-26,57.87,57.87,0,0,1-2-20.66" transform="translate(-29.87 -38.34)" fill="#455a64"/><path d="M249.55,257.8s0,.35-.07,1-.1,1.72-.12,3.06a58.18,58.18,0,0,0,1.18,11.71,61.32,61.32,0,0,0,2.2,8.22,46.77,46.77,0,0,0,4.38,9.09,48.27,48.27,0,0,0,7.28,9c2.91,2.92,6.53,5.37,10.2,8.12,14.75,10.87,32.35,23.78,52.16,37.73,5,3.48,10.06,7,15.31,10.56s10.65,7.13,16.34,10.43A43,43,0,0,0,362.8,369a12.72,12.72,0,0,0,2.35.7l2.44.59a67.8,67.8,0,0,0,9.89,2,16.73,16.73,0,0,0,9.81-1.79,20.11,20.11,0,0,0,7.25-7.13c2.89-5,4-10.81,4.14-16.43a53,53,0,0,0-.35-8.42q-.25-2.08-.69-4.11a13.08,13.08,0,0,0-1.35-3.83c-1.64-2.16-3.5-4.25-5.25-6.32l-5.32-6.14L375.29,306.2l-37.68-42.57,0,0-40.14-36.32,0,0a25.68,25.68,0,0,0-10.29-3,43.31,43.31,0,0,0-7.88.07c-2.12.21-3.71.48-4.78.66l-1.21.22-.41.06s.54-.13,1.6-.35,2.66-.49,4.78-.72a42.68,42.68,0,0,1,7.91-.13,25.79,25.79,0,0,1,10.4,3h0l40.25,36.2h0c11.27,12.63,24,27,37.75,42.52l10.46,11.92,5.33,6.14c1.77,2.09,3.59,4.12,5.3,6.37a6.91,6.91,0,0,1,.51,1c.14.33.24.67.36,1,.23.67.38,1.36.55,2q.44,2.06.7,4.17a53.46,53.46,0,0,1,.35,8.5c-.2,5.68-1.26,11.56-4.22,16.68a20.61,20.61,0,0,1-7.45,7.32,17.25,17.25,0,0,1-10.1,1.85,68.14,68.14,0,0,1-10-2l-2.44-.59a13.31,13.31,0,0,1-2.43-.73,43.34,43.34,0,0,1-4.44-2.28c-5.72-3.32-11.1-6.93-16.36-10.46s-10.35-7.1-15.31-10.58c-19.8-14-37.37-26.92-52.1-37.82-3.65-2.75-7.29-5.22-10.21-8.18a48.44,48.44,0,0,1-7.29-9.11,46.84,46.84,0,0,1-4.37-9.17,61,61,0,0,1-2.16-8.26,56.67,56.67,0,0,1-1.09-11.75A34.72,34.72,0,0,1,249.55,257.8Z" transform="translate(-29.87 -38.34)" fill="#263238"/><path d="M351.45,260.85a1.05,1.05,0,0,1-.23-.15l-.64-.47c-.55-.43-1.4-1-2.41-1.9-2.06-1.68-4.9-4.29-8.29-7.62s-7.31-7.42-11.76-11.84c-2.24-2.19-4.6-4.5-7.17-6.74a74.14,74.14,0,0,0-8.3-6.49c-1.21-.88-2.54-1.55-3.77-2.3l-.17-.1,0-.18.61-2.69.17.3L278.76,211l-9.11-2.92-2.45-.81-.63-.22-.21-.09.22,0,.65.18,2.48.72,9.16,2.77,30.83,9.52.23.07-.05.23-.61,2.69-.13-.29c1.25.76,2.59,1.44,3.81,2.32a73.6,73.6,0,0,1,8.35,6.54c2.58,2.26,4.93,4.58,7.17,6.78,4.44,4.45,8.33,8.56,11.69,11.92s6.14,6,8.16,7.73c1,.9,1.81,1.51,2.34,2l.61.51A1.08,1.08,0,0,1,351.45,260.85Z" transform="translate(-29.87 -38.34)" fill="#263238"/><path d="M371.34,301.79a14.83,14.83,0,0,1-1.13-2L367.32,294c-2.42-4.86-5.72-11.6-9.34-19.06s-6.86-14.23-9.18-19.14L346.08,250l-.71-1.6a2.7,2.7,0,0,1-.22-.57,2.71,2.71,0,0,1,.31.53l.8,1.55,2.87,5.76,9.32,19.07,9.2,19.13,2.75,5.82C371,301,371.39,301.82,371.34,301.79Z" transform="translate(-29.87 -38.34)" fill="#263238"/><path d="M277.71,411.49h.36l1,.07,4,.32,14.62,1.26,49.29,4.4-.27.32L343.51,405l-1.48-6,.22.2-55.19-6.4.17-.09c-3.24,5.74-5.74,10.38-7.37,13.6-.81,1.61-1.41,2.87-1.76,3.75a7.07,7.07,0,0,0-.35,1,1.81,1.81,0,0,0,0,.36,2.67,2.67,0,0,1,.31-1.4c.33-.89.89-2.17,1.68-3.79,1.58-3.25,4-7.92,7.24-13.69l.06-.1h.11l55.21,6.23.18,0,0,.18,1.48,6,3.18,12.84.09.35-.36,0-49.41-4.62L282.94,412l-3.9-.4-1-.11Z" transform="translate(-29.87 -38.34)" fill="#263238"/><g opacity="0.3"><polygon points="249.63 373.31 252 379.48 317.07 383.36 317.07 379.48 249.63 373.31"/></g></g><g id="Character_1" data-name="Character 1"><path d="M190,101.56c-.2-3.48-3.09-6.39-6.41-7.44s-7-.52-10.26.58c-7.21,2.39-13.27,7.3-19.15,12.1-9.13,7.46-18,17.69-21.48,28.95-2.63,8.48-3.39,14-.69,23,2.39,8,4.28,15.71,3.8,22.38-.75,10.55-2,13-4.74,23.38-1.7,6.48,4.07,23.4,4.07,23.4l36.49-14c13-6.12,41.07-17.54,41.07-17.54Z" transform="translate(-29.87 -38.34)" fill="#263238"/><path d="M169.51,225.29c.06-8.87.15-15.05.14-15s-15.93-3.68-19.14-26.4a225.24,225.24,0,0,1-1.22-44.36c1.09-13.58,10.39-30.11,23.91-28.44l42.12,11.42c4.11.51,5.48,4,5.33,8.15l.31,1.94-3.09,64.87,1.33,27.59c-.54,12.33-12.74,23.54-25.06,24.1h0A23.52,23.52,0,0,1,169.51,225.29Z" transform="translate(-29.87 -38.34)" fill="#b56760"/><path d="M158.83,157.63a2.91,2.91,0,0,0,2.75,3,2.78,2.78,0,0,0,3-2.57,2.91,2.91,0,0,0-2.75-3A2.78,2.78,0,0,0,158.83,157.63Z" transform="translate(-29.87 -38.34)" fill="#263238"/><path d="M155,149.76c.35.38,2.58-1.21,5.71-1.14s5.39,1.67,5.74,1.29c.17-.17-.19-.86-1.17-1.6a8,8,0,0,0-4.59-1.5,7.66,7.66,0,0,0-4.55,1.38C155.17,148.9,154.83,149.58,155,149.76Z" transform="translate(-29.87 -38.34)" fill="#263238"/><path d="M188.1,157.29a2.91,2.91,0,0,0,2.75,3,2.78,2.78,0,0,0,3-2.57,2.91,2.91,0,0,0-2.75-3A2.78,2.78,0,0,0,188.1,157.29Z" transform="translate(-29.87 -38.34)" fill="#263238"/><path d="M185,149.67c.35.38,2.59-1.21,5.71-1.14s5.39,1.67,5.74,1.29c.17-.17-.18-.86-1.17-1.6a8,8,0,0,0-4.59-1.5,7.67,7.67,0,0,0-4.55,1.38C185.17,148.81,184.83,149.49,185,149.67Z" transform="translate(-29.87 -38.34)" fill="#263238"/><path d="M172.45,173.32c0-.18-1.92-.55-5.06-1-.8-.1-1.55-.27-1.68-.81a4.07,4.07,0,0,1,.57-2.36l2.47-6c3.43-8.6,5.93-15.68,5.58-15.82s-3.41,6.73-6.84,15.33l-2.37,6.08a4.62,4.62,0,0,0-.47,3.13,2,2,0,0,0,1.29,1.19,5.41,5.41,0,0,0,1.35.21C170.47,173.45,172.43,173.5,172.45,173.32Z" transform="translate(-29.87 -38.34)" fill="#263238"/><path d="M169.65,210.3a57.67,57.67,0,0,0,30.49-7.58s-7.93,15.87-30.58,13.35Z" transform="translate(-29.87 -38.34)" fill="#8a4a43"/><path d="M184,138.61c.37.83,3.45.21,7.15.4s6.72,1,7.16.19c.19-.38-.38-1.14-1.63-1.88a12.44,12.44,0,0,0-10.9-.45C184.47,137.5,183.84,138.21,184,138.61Z" transform="translate(-29.87 -38.34)" fill="#263238"/><path d="M154.13,140c.64.72,3.2,0,6.27,0s5.65.57,6.26-.16c.27-.36-.13-1.07-1.25-1.77a9.87,9.87,0,0,0-5.07-1.25,9.72,9.72,0,0,0-5,1.34C154.22,138.91,153.85,139.64,154.13,140Z" transform="translate(-29.87 -38.34)" fill="#263238"/><path d="M181.94,176.29c-.15,0-.35.79-.93,2a9.65,9.65,0,0,1-7.86,5.46c-1.29.14-2.12,0-2.15.19s.77.49,2.18.53a8.8,8.8,0,0,0,8.49-5.9C182.13,177.19,182.06,176.3,181.94,176.29Z" transform="translate(-29.87 -38.34)" fill="#263238"/><path d="M148.71,165.71l-4.7-19c-4.22-5.82-.92-15.31,2.07-21.85s8.69-11.54,15-14.92,13.35-5.29,20.33-7a38.92,38.92,0,0,1-16.75,21.14S153.13,132,151,141.3C148.76,151.49,148.71,165.71,148.71,165.71Z" transform="translate(-29.87 -38.34)" fill="#263238"/><path d="M175.07,114.93l33.07,19.87a107.64,107.64,0,0,0,7,29.74c6.1-5.22,9.87,4.84,11.7-2.89.1-.4-1.68,16.22-8.07,16.74l-1.05,18.07,31.54-7.75s-1.7-21.91-7.08-35.19c-3.35-8.26-5.12-15.19-8.42-23.47-2.5-6.27-6.94-15.64-10.28-20.09-7.17-9.58-33.69-10-33.69-10-11.69,2.76-3.82,1.44-13.67,8.33l-3.37,9" transform="translate(-29.87 -38.34)" fill="#263238"/><path d="M215.18,164.41c0-4.78,5.09-8.24,9.43-6.09,2.38,1.18,4.3,3.72,4.37,8.79.19,13.51-13.68,10.93-13.71,10.54S215.21,170,215.18,164.41Z" transform="translate(-29.87 -38.34)" fill="#b56760"/><path d="M219.4,172.47c.06,0,.24.16.65.34a2.44,2.44,0,0,0,1.79,0c1.45-.55,2.64-2.83,2.68-5.27a7.64,7.64,0,0,0-.72-3.36,2.74,2.74,0,0,0-1.83-1.78,1.23,1.23,0,0,0-1.41.67c-.18.38-.09.65-.16.67s-.3-.22-.2-.78a1.5,1.5,0,0,1,.53-.85,1.84,1.84,0,0,1,1.32-.36,3.35,3.35,0,0,1,2.54,2.06,7.87,7.87,0,0,1,.88,3.76c-.05,2.72-1.44,5.29-3.42,5.89a2.61,2.61,0,0,1-2.2-.33C219.43,172.8,219.36,172.5,219.4,172.47Z" transform="translate(-29.87 -38.34)" fill="#8a4a43"/><path d="M190.84,99.9a3.44,3.44,0,0,1-.57.81c-.41.49-1,1.17-1.84,2-1.6,1.62-3.91,3.74-6.47,6.07s-4.86,4.45-6.5,6-2.61,2.58-2.67,2.53a3.63,3.63,0,0,1,.59-.79c.4-.49,1-1.17,1.81-2,1.57-1.64,3.84-3.81,6.41-6.15l6.57-5.95C189.86,100.9,190.78,99.85,190.84,99.9Z" transform="translate(-29.87 -38.34)" fill="#455a64"/><path d="M154.05,111.35a5.93,5.93,0,0,1,.88-1,26.18,26.18,0,0,1,2.75-2.51,30.39,30.39,0,0,1,10.93-5.5,12,12,0,0,1,6.78-.09,6.69,6.69,0,0,1,4.21,3.55,5.2,5.2,0,0,1,.19,3.72,3.7,3.7,0,0,1-.46.92c-.14.19-.22.28-.24.27a9.81,9.81,0,0,0,.5-1.24,5.18,5.18,0,0,0-.34-3.51,6.39,6.39,0,0,0-4-3.25,11.8,11.8,0,0,0-6.5.13,32.19,32.19,0,0,0-10.83,5.29C155.42,110,154.13,111.42,154.05,111.35Z" transform="translate(-29.87 -38.34)" fill="#455a64"/><path d="M146.49,124.95a6.22,6.22,0,0,1,.86-1c.58-.6,1.44-1.46,2.52-2.49a47.81,47.81,0,0,1,9.28-7.12,19.66,19.66,0,0,1,6-2.33,7.7,7.7,0,0,1,5.22.79,5.64,5.64,0,0,1,2.4,2.64,4,4,0,0,1,.25.94c0,.22,0,.34,0,.34s-.09-.46-.44-1.2a5.71,5.71,0,0,0-2.4-2.4,7.45,7.45,0,0,0-5-.63,20,20,0,0,0-5.87,2.32,53.93,53.93,0,0,0-9.28,6.93l-2.63,2.36A6.26,6.26,0,0,1,146.49,124.95Z" transform="translate(-29.87 -38.34)" fill="#455a64"/><circle cx="220.93" cy="179.13" r="4.72" transform="translate(-35.86 -30.69) rotate(-1.96)" fill="#455a64"/><path d="M139,314c-1.13.76-13.6,3.78-16.62,11.71s-19.06,24.06-7.45,39.8L139,352.21Z" transform="translate(-29.87 -38.34)" fill="#ff725e"/><path d="M114.94,365.6v0a20.71,20.71,0,0,1-3.93-9.12,21.9,21.9,0,0,1,.51-8.84c1.43-5.71,4.68-11,7.29-15.32a45.73,45.73,0,0,0,3.58-6.54c2.47-6.49,11.26-9.7,15-11.07A12.09,12.09,0,0,0,139,314l0,0v38.22h0ZM139,314.09a13.88,13.88,0,0,1-1.6.64c-3.74,1.37-12.51,4.57-15,11a45.75,45.75,0,0,1-3.58,6.55c-2.61,4.28-5.85,9.6-7.28,15.3a21.85,21.85,0,0,0-.51,8.82,20.66,20.66,0,0,0,3.91,9.09l24-13.34Z" transform="translate(-29.87 -38.34)" fill="#263238"/><polygon points="136.93 209.93 138.9 182.71 188.46 162.03 190.22 172.19 156.46 189.37 136.93 209.93" fill="#e0e0e0"/><path d="M220.09,204.54s-30.36,12.28-43.83,24.28c-12.67,11.29-39,55.76-41.82,67.89s-2.27,45.69-2.27,45.69-.07,34.62-.07,35.46-21.72,56.7-17.77,87.16H238.16s3.67-42.87-4.8-59.52-8.74-13.26-8.74-13.26,5.08-5.64,4.51-10.72a21.89,21.89,0,0,0-3.67-9.31l21.72-67.7s2.26-34.13-3.67-57C238,226.12,235.9,227.33,229,220.48c-.15-.15.09.19,0,0l-6.31-5.18Z" transform="translate(-29.87 -38.34)" fill="#ff725e"/><path d="M139,411.49c-.39-1.46,9.38-18.79,9.38-18.79l56,9.4,3.9,15.73Z" transform="translate(-29.87 -38.34)" fill="#ff725e"/><path d="M139,411.49h.36l1,.07,4,.32L159,413.16l49.27,4.4-.27.32L205.07,406l-1-3.85.21.19-56-9.48.18-.09c-3.24,5.74-5.74,10.37-7.37,13.6-.81,1.61-1.41,2.88-1.76,3.75a7.09,7.09,0,0,0-.35,1,1.82,1.82,0,0,0,0,.36,2.67,2.67,0,0,1,.31-1.4c.33-.89.9-2.17,1.68-3.8,1.58-3.26,4-7.92,7.23-13.68l.06-.11.12,0,56,9.31.17,0,0,.17,1,3.85,2.94,11.88.09.35-.36,0-49.39-4.62-14.58-1.41-3.91-.4-1-.11Z" transform="translate(-29.87 -38.34)" fill="#263238"/><g opacity="0.3"><path d="M127,384.6l1.25,10.14c8.93,6.32,21.55,5.12,31.09-.22s16.63-14.11,23.18-22.87c19.84-26.55,37.13-55.22,48.92-86.2C200.69,322.38,158.07,347.92,127,384.6Z" transform="translate(-29.87 -38.34)"/></g><path d="M227,233.19c10.39,8.27,19.45,34.15,3.36,56.52,0,0-70.3,95.38-81.94,103s-27.31,3.13-31.79-8.06-2.69-21.94,3.58-29.55,47.46-80.15,47.46-80.15,9.4-33.62,25.4-43.39" transform="translate(-29.87 -38.34)" fill="#ff725e"/><path d="M193.06,231.55l-.72.51c-.49.31-1.18.84-2.08,1.55a41.33,41.33,0,0,0-6.77,7.4c-5.18,7.07-11.06,18.62-15.66,34v0c-9,15.91-20.33,35.72-33.46,58-3.31,5.54-6.7,11.26-10.36,17-1,1.42-1.82,2.89-2.88,4.28-.51.71-1,1.4-1.55,2.07s-1,1.41-1.43,2.15a27.94,27.94,0,0,0-2.21,4.7,28.93,28.93,0,0,0-1.24,5.11,29.92,29.92,0,0,0,.45,10.62c.2.88.41,1.76.69,2.62s.57,1.72.88,2.57.75,1.64,1.13,2.46l.74,1.14a7,7,0,0,0,.8,1.1,19.46,19.46,0,0,0,8.94,6.17,23,23,0,0,0,11,1,22.75,22.75,0,0,0,9.48-3.87,65.44,65.44,0,0,0,7.25-7.25c4.54-5.09,8.82-10.28,13-15.42,8.32-10.28,16.15-20.35,23.57-30s14.39-18.84,20.89-27.47l9.38-12.52,4.4-5.91c1.42-1.94,2.9-3.78,4.08-5.74A45.12,45.12,0,0,0,237,276l.81-2.94c.27-1,.36-2,.55-2.91a45.17,45.17,0,0,0,.59-5.61,46.38,46.38,0,0,0-3.12-18.28,35.27,35.27,0,0,0-5.93-10.15c-.45-.5-.81-1-1.18-1.33l-.95-.88c-.51-.47-.76-.73-.76-.73s.27.22.79.69l1,.86c.39.34.75.82,1.21,1.32a34.82,34.82,0,0,1,6,10.14,46.37,46.37,0,0,1,3.22,18.37,45.34,45.34,0,0,1-.58,5.65c-.18,1-.28,2-.54,2.93l-.8,3A45.38,45.38,0,0,1,231.69,288c-1.19,2-2.67,3.82-4.08,5.77l-4.39,5.92-9.36,12.53c-6.49,8.65-13.45,17.86-20.85,27.5s-15.23,19.72-23.55,30c-4.17,5.14-8.45,10.34-13,15.44-1.13,1.28-2.31,2.53-3.5,3.78a36.91,36.91,0,0,1-3.83,3.54,23.25,23.25,0,0,1-9.7,4,23.52,23.52,0,0,1-11.29-1,20,20,0,0,1-9.18-6.34,7.39,7.39,0,0,1-.83-1.13l-.76-1.17c-.39-.84-.85-1.67-1.17-2.53s-.65-1.72-.89-2.61-.5-1.76-.69-2.66a30.42,30.42,0,0,1-.45-10.81,29.42,29.42,0,0,1,1.27-5.2,28.43,28.43,0,0,1,2.26-4.79c.46-.75.93-1.49,1.46-2.19s1.06-1.39,1.55-2.08c1-1.35,1.92-2.83,2.86-4.24,3.65-5.74,7.05-11.45,10.37-17,13.16-22.21,24.48-42,33.57-57.88l0,0c4.66-15.38,10.6-26.93,15.84-34a40.4,40.4,0,0,1,6.86-7.36,23.69,23.69,0,0,1,2.11-1.52Z" transform="translate(-29.87 -38.34)" fill="#263238"/><path d="M162.06,305.38s-1.81-4.74-5.42-5.36-10.61,0-10.61,0-3.08,2.32-3.05,5.5a22.9,22.9,0,0,0,.65,5.41s-2.53-3.41-5.86-.18-6.25,9.78-6.25,9.78-4.43,1.42-6.12,3.57a19.58,19.58,0,0,0-2.68,5.63,7.2,7.2,0,0,0-3.06,6.92,9,9,0,0,0,4.7,6.69s13.2,9.73,14.82,8.48,4.92-3.25.16-7.45-7.73-6.85-7.73-6.85l2.24-3.45s12.92,8.88,15,8.46,5.6-.5,4.16-3.69-13.54-12.49-13.54-12.49l1.43-5s14,9.47,16.26,8,4.33-2.22,2-5.34-12.42-10.57-12.42-10.57l4.14-3.86S160.64,311.21,162.06,305.38Z" transform="translate(-29.87 -38.34)" fill="#b56760"/><path d="M222.65,215.31l-.35.11-1,.27c-.9.24-2.23.59-3.94,1.07a141.8,141.8,0,0,0-14.22,4.77c-1.47.59-3,1.24-4.55,2-.78.37-1.57.75-2.36,1.18-.39.21-.8.41-1.19.65s-.77.47-1.13.76a62.18,62.18,0,0,0-8.38,8.35c-5.48,6.33-11.07,13.67-16.79,21.45s-11,15.35-15.75,22.27c-2.37,3.46-4.59,6.76-6.65,9.87a80,80,0,0,0-5.31,8.87,100.24,100.24,0,0,0-5.57,13.91c-.54,1.69-.93,3-1.19,3.9l-.29,1a2,2,0,0,1-.11.34,1.76,1.76,0,0,1,.06-.36l.25-1c.23-.91.59-2.24,1.1-3.93a94.6,94.6,0,0,1,5.43-14,78.92,78.92,0,0,1,5.28-8.94c2-3.12,4.25-6.44,6.61-9.91,4.72-6.93,10-14.5,15.72-22.3s11.34-15.13,16.85-21.46a61.91,61.91,0,0,1,8.49-8.39c.37-.29.79-.52,1.18-.78s.81-.43,1.21-.65c.79-.43,1.59-.81,2.38-1.18,1.57-.74,3.11-1.39,4.58-2a130.54,130.54,0,0,1,14.3-4.62c1.71-.46,3.06-.77,4-1l1-.22A1.8,1.8,0,0,1,222.65,215.31Z" transform="translate(-29.87 -38.34)" fill="#263238"/><path d="M214.79,386.24a11.56,11.56,0,0,1-1.55-.87c-1-.58-2.37-1.49-4-2.66a94.46,94.46,0,0,1-22.57-22.45c-1.18-1.67-2.09-3.05-2.68-4a11.55,11.55,0,0,1-.88-1.54,11.62,11.62,0,0,1,1.05,1.43c.64.94,1.6,2.29,2.81,3.93a106,106,0,0,0,22.49,22.37c1.64,1.21,3,2.16,3.94,2.79A11.61,11.61,0,0,1,214.79,386.24Z" transform="translate(-29.87 -38.34)" fill="#263238"/><g opacity="0.3"><polygon points="110.95 373.31 112.64 379.48 176.02 379.26 110.95 373.31"/></g></g></svg>