<svg id="Objects" xmlns="http://www.w3.org/2000/svg" xmlns:xlink="http://www.w3.org/1999/xlink" viewBox="0 0 411.68 360.08"><defs><linearGradient id="Degradado_sin_nombre_17" x1="-57.47" y1="401.9" x2="215.47" y2="122.64" gradientUnits="userSpaceOnUse"><stop offset="0" stop-color="#54a2eb"/><stop offset="1" stop-color="#56abe3" stop-opacity="0"/></linearGradient></defs><title>developer_role</title><polyline points="139.65 155.79 77.61 301.93 139.11 301.04 140.82 164.92" fill="#999"/><path d="M397.5,203.88,385,167.19c-1.24-3.64-2.46-7.69-.9-11.2,2.1-4.7,8.22-6.13,13.37-5.57a29.63,29.63,0,0,1,22.37,14.85c-1.13-2.12-2.28-4.34-2.38-6.74s1.2-5,3.53-5.68c1.91-.53,3.9.37,5.62,1.35a46.32,46.32,0,0,1,14.22,12.67c-1.21-2.45,1.58-5.36,4.32-5.29s5,2,6.87,4.08l5.54,6.91c7.18-4.53,11.31,2.49,5.67,17.92-1.62,4.44-3.58,13.39-3.58,13.39H397.5" transform="translate(-224.36 -144.48)" fill="#0e1f3d"/><path d="M454.56,247.69s-32.8-1.25-38.51,0-13.71-2.1-16.39-7S396.8,177,396.8,177l61.48-1.7Z" transform="translate(-224.36 -144.48)" fill="#f6b69e"/><path d="M563.67,308.22l6.63-14.07s-6.15-14.53-3.21-15.48,9.11,10.66,10.55,9,7.58-21.24,10-20.92a3.33,3.33,0,0,1,2.93,2s2-4.84,3-4.46,2.62.46,2.21,5.39c0,0,1.9-2.3,2.54,3,0,0,3.53.1,3.14,3.08s-8.15,48.7-8.15,48.7Z" transform="translate(-224.36 -144.48)" fill="#f6b69e"/><path d="M590.3,268.53a15.91,15.91,0,0,1-.52,3c-.4,1.84-1,4.36-1.88,7.1s-1.7,5.2-2.39,6.95a15.91,15.91,0,0,1-1.23,2.79,19.76,19.76,0,0,1,.89-2.91c.59-1.78,1.41-4.24,2.24-7s1.52-5.23,2-7A19.78,19.78,0,0,1,590.3,268.53Z" transform="translate(-224.36 -144.48)" fill="#f29680"/><ellipse cx="592.88" cy="277.02" rx="9.44" ry="0.26" transform="translate(-67.57 620.47) rotate(-73.25)" fill="#f29680"/><ellipse cx="596.62" cy="279.33" rx="7.43" ry="0.26" transform="translate(-85.13 608.96) rotate(-71.12)" fill="#f29680"/><polygon points="183.96 84.33 183.96 117.1 230.2 117.1 230.2 75.3 183.96 84.33" fill="#f6b69e"/><rect x="183.12" y="117.1" width="47.07" height="21.14" fill="#999"/><path d="M365.07,504.56l-3.89-143.51s-9.68-54.61,6.5-64.29,41.09-19.85,41.09-19.85H451s54.47,21.79,60.16,27.6S519,502.18,519,502.18Z" transform="translate(-224.36 -144.48)" fill="#999"/><polygon points="286.69 160.92 341.42 289.23 295.46 305.93 286.69 160.92" fill="#999"/><path d="M595.53,322.62,565.78,446.53s-2.59,18.87-34.19,18.46c-33.91-.44-16.61-43.31-16.61-43.31L562.49,305.4Z" transform="translate(-224.36 -144.48)" fill="#999"/><polygon points="158.51 21.67 0 217.58 108.21 296.36 182.78 296.36 411.68 81.15 329.54 0 158.51 21.67" fill="url(#Degradado_sin_nombre_17)"/><path d="M494.53,221.06a6.57,6.57,0,1,1,6.62-6.57A6.6,6.6,0,0,1,494.53,221.06Zm0-10.14a3.56,3.56,0,1,0,3.59,3.56A3.58,3.58,0,0,0,494.53,210.92Z" transform="translate(-224.36 -144.48)" fill="#ef635b"/><path d="M563.67,209.3a6.57,6.57,0,1,1,6.62-6.57A6.6,6.6,0,0,1,563.67,209.3Zm0-10.14a3.56,3.56,0,1,0,3.59,3.56A3.58,3.58,0,0,0,563.67,199.16Z" transform="translate(-224.36 -144.48)" fill="#5ed19c"/><path d="M410.69,368.18a3.56,3.56,0,1,1,3.59-3.56A3.58,3.58,0,0,1,410.69,368.18Zm0-5.5a1.93,1.93,0,1,0,1.95,1.93A1.94,1.94,0,0,0,410.69,362.68Z" transform="translate(-224.36 -144.48)" fill="#fff"/><path d="M481.89,195.28a3.56,3.56,0,1,1,3.59-3.56A3.58,3.58,0,0,1,481.89,195.28Zm0-5.5a1.93,1.93,0,1,0,1.95,1.93A1.94,1.94,0,0,0,481.89,189.79Z" transform="translate(-224.36 -144.48)" fill="#5ed19c"/><path d="M363.12,231.95a3.56,3.56,0,1,1,3.59-3.56A3.58,3.58,0,0,1,363.12,231.95Zm0-5.5a1.93,1.93,0,1,0,1.95,1.93A1.94,1.94,0,0,0,363.12,226.45Z" transform="translate(-224.36 -144.48)" fill="#5ed19c"/><polygon points="285.74 138.24 281.83 133.76 298.4 119.54 282.2 105.44 286.13 100.99 307.49 119.57 285.74 138.24" fill="#ade2eb"/><polygon points="153.12 173.91 157.38 174.22 156.24 189.74 171.62 188.73 171.9 192.96 151.63 194.28 153.12 173.91" fill="#0e1f3d"/><polygon points="322 134.86 324 135 323.47 142.31 330.7 141.83 330.84 143.82 321.3 144.45 322 134.86" fill="#ffcc5a"/><polygon points="158.5 253.69 142.54 263.4 140.82 260.62 156.78 250.91 158.5 253.69" fill="#ef694b"/><polygon points="267.93 6.54 256.97 21.6 254.31 19.69 265.26 4.63 267.93 6.54" fill="#ef694b"/><path d="M557.41,236.27l-5,.25.24,4.74-3.74.19-.24-4.74-5,.25-.17-3.4,5-.25-.24-4.74,3.74-.19.24,4.74,5-.25Z" transform="translate(-224.36 -144.48)" fill="#0e1f3d"/><path d="M388.42,267.73l-5,.25.25,4.9-3.74.19-.25-4.9-5,.25-.18-3.51,5-.25-.25-4.9,3.74-.19.25,4.9,5-.25Z" transform="translate(-224.36 -144.48)" fill="#ffcc5a"/><path d="M312.47,309.14l-1.35-1.23c2.37-2.58,5.16-2.45,7.61-2.34s4.38.2,6.17-1.75,1.51-3.95,1.19-6.27-.72-5.16,1.65-7.74,5.16-2.46,7.61-2.34,4.39.2,6.18-1.75,1.52-4,1.2-6.27-.71-5.17,1.66-7.75,5.16-2.46,7.61-2.35,4.39.19,6.18-1.76l1.35,1.23c-2.37,2.58-5.15,2.46-7.62,2.35s-4.39-.19-6.18,1.76-1.52,4-1.2,6.27.71,5.17-1.66,7.75-5.15,2.45-7.61,2.34-4.38-.2-6.18,1.75-1.51,3.95-1.19,6.27.72,5.16-1.65,7.74-5.15,2.45-7.61,2.34S314.26,307.19,312.47,309.14Z" transform="translate(-224.36 -144.48)" fill="#ef635b" stroke="#ef635b" stroke-miterlimit="10" stroke-width="2"/><path d="M434,301.4l-1.21-1.1c2.13-2.31,4.63-2.2,6.83-2.1s3.93.18,5.54-1.57,1.35-3.54,1.07-5.62-.64-4.63,1.48-6.94,4.63-2.2,6.83-2.1,3.94.18,5.54-1.57,1.36-3.55,1.07-5.63-.64-4.64,1.49-7,4.63-2.2,6.83-2.11,3.94.17,5.55-1.58l1.21,1.1c-2.13,2.32-4.62,2.21-6.83,2.11s-3.94-.17-5.55,1.58-1.36,3.55-1.07,5.63.64,4.64-1.49,7-4.62,2.2-6.83,2.1-3.93-.18-5.54,1.57-1.35,3.54-1.07,5.62.64,4.63-1.48,6.94-4.62,2.2-6.83,2.1S435.65,299.65,434,301.4Z" transform="translate(-224.36 -144.48)" fill="#5ed19c"/><path d="M433.66,220.2a2.68,2.68,0,0,1-.11.93,8.72,8.72,0,0,1-.93,2.38,10.17,10.17,0,0,1-2.45,2.9,10,10,0,0,1-4.2,2,10.25,10.25,0,0,1-8.07-1.87,8.78,8.78,0,0,1-1.81-1.8,2.69,2.69,0,0,1-.48-.81,16.65,16.65,0,0,0,2.5,2.31,9.81,9.81,0,0,0,14.19-3A16.43,16.43,0,0,0,433.66,220.2Z" transform="translate(-224.36 -144.48)" fill="#0e1f3d"/><path d="M436.47,204.44c-.74,0-1.39-1-1.17-2.29.2-1.11.81-2.11,1.59-2.09s1.4,1,1.17,2.29C437.86,203.46,437.26,204.46,436.47,204.44Z" transform="translate(-224.36 -144.48)" fill="#0e1f3d"/><path d="M440.7,191.52a3.26,3.26,0,0,1-1.83.14c-.65-.07-1.31-.11-1.88-.13s-1.23,0-1.88,0a3.26,3.26,0,0,1-1.82-.23c-.49-.3-.68-1.12-.08-2.11a4.62,4.62,0,0,1,7.68.18C441.43,190.43,441.2,191.25,440.7,191.52Z" transform="translate(-224.36 -144.48)" fill="#0e1f3d"/><path d="M409.13,204a1.75,1.75,0,0,1-1.53-2.29c.26-1.11,1.06-2.11,2.08-2.09a1.75,1.75,0,0,1,1.53,2.29C411,203,410.16,204,409.13,204Z" transform="translate(-224.36 -144.48)" fill="#0e1f3d"/><path d="M436.41,204.44a1.75,1.75,0,0,1-1.53-2.29c.26-1.11,1.06-2.11,2.08-2.09a1.75,1.75,0,0,1,1.53,2.29C438.23,203.46,437.43,204.46,436.41,204.44Z" transform="translate(-224.36 -144.48)" fill="#0e1f3d"/><path d="M412,195.66a3.26,3.26,0,0,1-1.83.14c-.65-.07-1.3-.11-1.88-.13s-1.23,0-1.88,0a3.26,3.26,0,0,1-1.82-.23c-.49-.3-.68-1.12-.08-2.11a4.63,4.63,0,0,1,7.68.18C412.73,194.58,412.5,195.39,412,195.66Z" transform="translate(-224.36 -144.48)" fill="#0e1f3d"/><path d="M454.85,217.22s9.9.69,9.9-6.86-9.07-6.93-9.07-6.93Z" transform="translate(-224.36 -144.48)" fill="#f6b69e"/><path d="M457.57,214.48a11.47,11.47,0,0,0,1.74-.48,4.37,4.37,0,0,0,1.51-1.13,4.08,4.08,0,0,0,.56-4.33,4.34,4.34,0,0,0-1.18-1.48,11.39,11.39,0,0,0-1.56-.9,2.67,2.67,0,0,1,1.78.6,4.34,4.34,0,0,1,1.39,1.56,4.35,4.35,0,0,1-.63,4.87,4.36,4.36,0,0,1-1.74,1.16A2.67,2.67,0,0,1,457.57,214.48Z" transform="translate(-224.36 -144.48)" fill="#0e1f3d"/><path d="M461.89,210.29c0,.05-.1.26-.44.45a2.55,2.55,0,0,1-2.85-.34c-.28-.27-.37-.5-.32-.54s.74.53,1.76.64S461.81,210.17,461.89,210.29Z" transform="translate(-224.36 -144.48)" fill="#0e1f3d"/><path d="M400.23,218.38s-9.9.69-9.9-6.86,9.07-6.93,9.07-6.93Z" transform="translate(-224.36 -144.48)" fill="#f6b69e"/><path d="M397.51,215.64a2.67,2.67,0,0,1-1.88-.13,4.36,4.36,0,0,1-1.74-1.16,4.36,4.36,0,0,1-.63-4.87,4.34,4.34,0,0,1,1.39-1.56,2.67,2.67,0,0,1,1.78-.6,11.38,11.38,0,0,0-1.56.9,4.35,4.35,0,0,0-1.18,1.48,4.09,4.09,0,0,0,.56,4.33,4.37,4.37,0,0,0,1.51,1.13A11.45,11.45,0,0,0,397.51,215.64Z" transform="translate(-224.36 -144.48)" fill="#0e1f3d"/><path d="M393.19,211.46c.09-.12.84.34,1.86.2s1.64-.73,1.76-.64,0,.27-.32.54a2.55,2.55,0,0,1-2.86.34C393.29,211.71,393.15,211.51,393.19,211.46Z" transform="translate(-224.36 -144.48)" fill="#0e1f3d"/><path d="M519.82,503.07a2.66,2.66,0,0,1,0-.43l0-1.27-.1-4.87-.06-3.52-.15-4.18c-.1-3-.21-6.42-.43-10.19-.33-7.55-1-16.53-1.72-26.5s-1.78-20.91-2.86-32.4l-3-32.4c-.86-10-1.57-18.94-2-26.49-.27-3.77-.43-7.19-.59-10.19s-.28-5.59-.34-7.7l-.16-4.87,0-1.27a2.65,2.65,0,0,1,0-.43,2.65,2.65,0,0,1,0,.43l.08,1.26.25,4.86c.09,2.11.23,4.7.43,7.69s.37,6.41.67,10.18c.51,7.54,1.27,16.52,2.15,26.48l3,32.39c1.08,11.49,2,22.44,2.82,32.41s1.33,19,1.61,26.52c.19,3.78.27,7.2.35,10.2l.11,4.19,0,3.52c0,2.09,0,3.73,0,4.87v1.27A2.64,2.64,0,0,1,519.82,503.07Z" transform="translate(-224.36 -144.48)" fill="#fff"/><ellipse cx="538.22" cy="388.84" rx="0.26" ry="24.91" transform="translate(-227.14 -140.6) rotate(-0.41)" fill="#fff"/><ellipse cx="543.05" cy="386.48" rx="0.26" ry="22.37" transform="translate(-293.52 -21.56) rotate(-12.15)" fill="#fff"/><ellipse cx="575.18" cy="327.29" rx="0.26" ry="20.05" transform="translate(-201.21 547.79) rotate(-63.11)" fill="#fff"/><ellipse cx="568.7" cy="315.97" rx="7.2" ry="0.26" transform="translate(-176.67 561.11) rotate(-65.85)" fill="#fff"/><path d="M575.77,316.13" transform="translate(-224.36 -144.48)" fill="none" stroke="#ede7e1" stroke-miterlimit="10" stroke-width="0.05"/><path d="M577.4,312.65c0-.07.15-.11.3,0a.54.54,0,0,1-.06.84l-.22.15-.13-.2a.46.46,0,0,1,.1-.64c.15-.09.26,0,.26,0s0,.13,0,.2.05.13,0,.12l-.34-.06h0C577.43,313,577.39,312.78,577.4,312.65Z" transform="translate(-224.36 -144.48)" fill="#c4af9b"/><path d="M576,316.41c0,.06.05.15.13.11a.07.07,0,1,0-.05-.06c0,.08.05.1.11.13s.13.1,0,.21a.3.3,0,0,1-.43-.42C575.92,316.28,576,316.35,576,316.41Z" transform="translate(-224.36 -144.48)" fill="#c4af9b"/><path d="M431,500.4c-.14,0-.26-53.33-.26-119.09s.12-119.11.26-119.11.26,53.32.26,119.11S431.16,500.4,431,500.4Z" transform="translate(-224.36 -144.48)" fill="#fff"/><path d="M445.28,308s0-.37-.23-1a4.09,4.09,0,0,0-1.52-2.14,4,4,0,0,0-3.7-.51,3.85,3.85,0,0,0,0,7.25,4,4,0,0,0,3.7-.51A4.09,4.09,0,0,0,445,309c.18-.61.18-1,.23-1a2.13,2.13,0,0,1,0,1,4.08,4.08,0,0,1-1.49,2.38,4.32,4.32,0,1,1,0-6.82,4.08,4.08,0,0,1,1.49,2.38A2.13,2.13,0,0,1,445.28,308Z" transform="translate(-224.36 -144.48)" fill="#fcfcfc"/><path d="M445.28,344.29s0-.37-.23-1a4.09,4.09,0,0,0-1.52-2.14,4,4,0,0,0-3.7-.51,3.85,3.85,0,0,0,0,7.25,4,4,0,0,0,3.7-.51,4.09,4.09,0,0,0,1.52-2.14c.18-.61.18-1,.23-1a2.13,2.13,0,0,1,0,1,4.08,4.08,0,0,1-1.49,2.38,4.32,4.32,0,1,1,0-6.82,4.08,4.08,0,0,1,1.49,2.38A2.13,2.13,0,0,1,445.28,344.29Z" transform="translate(-224.36 -144.48)" fill="#fcfcfc"/><path d="M445.28,380.54s0-.37-.23-1a4.09,4.09,0,0,0-1.52-2.14,4,4,0,0,0-3.7-.51,3.85,3.85,0,0,0,0,7.25,4,4,0,0,0,3.7-.51,4.09,4.09,0,0,0,1.52-2.14c.18-.61.18-1,.23-1a2.13,2.13,0,0,1,0,1,4.08,4.08,0,0,1-1.49,2.38,4.32,4.32,0,1,1,0-6.82,4.08,4.08,0,0,1,1.49,2.38A2.13,2.13,0,0,1,445.28,380.54Z" transform="translate(-224.36 -144.48)" fill="#fcfcfc"/><path d="M445.28,416.8s0-.37-.23-1a4.09,4.09,0,0,0-1.52-2.14,4,4,0,0,0-3.7-.51,3.85,3.85,0,0,0,0,7.25,4,4,0,0,0,3.7-.51,4.09,4.09,0,0,0,1.52-2.14c.18-.61.18-1,.23-1a2.13,2.13,0,0,1,0,1,4.08,4.08,0,0,1-1.49,2.38,4.32,4.32,0,1,1,0-6.82,4.08,4.08,0,0,1,1.49,2.38A2.13,2.13,0,0,1,445.28,416.8Z" transform="translate(-224.36 -144.48)" fill="#fcfcfc"/><path d="M445.28,453.05s0-.37-.23-1a4.09,4.09,0,0,0-1.52-2.14,4,4,0,0,0-3.7-.51,3.85,3.85,0,0,0,0,7.25,4,4,0,0,0,3.7-.51A4.09,4.09,0,0,0,445,454c.18-.61.18-1,.23-1a2.13,2.13,0,0,1,0,1,4.08,4.08,0,0,1-1.49,2.38,4.32,4.32,0,1,1,0-6.82,4.08,4.08,0,0,1,1.49,2.38A2.13,2.13,0,0,1,445.28,453.05Z" transform="translate(-224.36 -144.48)" fill="#fcfcfc"/><path d="M445.28,489.31s0-.37-.23-1a4.09,4.09,0,0,0-1.52-2.14,4,4,0,0,0-3.7-.51,3.85,3.85,0,0,0,0,7.25,4,4,0,0,0,3.7-.51,4.09,4.09,0,0,0,1.52-2.14c.18-.61.18-1,.23-1a2.13,2.13,0,0,1,0,1,4.08,4.08,0,0,1-1.49,2.38,4.32,4.32,0,1,1,0-6.82,4.08,4.08,0,0,1,1.49,2.38A2.13,2.13,0,0,1,445.28,489.31Z" transform="translate(-224.36 -144.48)" fill="#fcfcfc"/><path d="M454.56,277.76a2.72,2.72,0,0,1-.61,0l-1.76,0c-.38,0-.81,0-1.27-.06l-1.5-.22c-.54-.09-1.12-.13-1.72-.29l-1.9-.5a23.2,23.2,0,0,1-8.43-4.62,9,9,0,0,1-1-.94c-.33-.34-.67-.67-1-1a26.41,26.41,0,0,1-1.8-2.31,21.33,21.33,0,0,1-2.78-5.5l.51-.05-.05.46a15.71,15.71,0,0,1-5.3,10.58,22.22,22.22,0,0,1-8.69,4.46,33,33,0,0,1-6.5,1.1c-.78.05-1.38.06-1.79.06a2.41,2.41,0,0,1-.62,0,3.4,3.4,0,0,1,.62-.06c.41,0,1-.07,1.78-.15a36.57,36.57,0,0,0,6.42-1.25,22.28,22.28,0,0,0,8.48-4.46,15.33,15.33,0,0,0,5.1-10.27l.05-.45.14-1.21.37,1.16a21.14,21.14,0,0,0,2.7,5.35,26.36,26.36,0,0,0,1.75,2.27c.32.34.65.67,1,1a8.79,8.79,0,0,0,1,.93,23.31,23.31,0,0,0,8.22,4.63l1.86.53c.59.17,1.17.22,1.69.33l1.48.26c.46.07.88.07,1.26.11l1.75.14A2.79,2.79,0,0,1,454.56,277.76Z" transform="translate(-224.36 -144.48)" fill="#fff"/><path d="M425.27,219.42a3.67,3.67,0,0,1-1,.54,4.8,4.8,0,0,1-1.29.37,2.85,2.85,0,0,1-1.78-.34,2,2,0,0,1-.77-.8,2.74,2.74,0,0,1-.27-1.15c0-.79,0-1.58,0-2.43l.16-5.54c.13-3.93.27-7.49.4-10.07l.18-3a4.67,4.67,0,0,1,.14-1.12,4.68,4.68,0,0,1,.06,1.12l0,3.05c0,2.58-.12,6.14-.25,10.07l-.2,5.54c0,.85-.08,1.67-.09,2.4a1.79,1.79,0,0,0,.79,1.64,3.29,3.29,0,0,0,2.81.1A6.47,6.47,0,0,1,425.27,219.42Z" transform="translate(-224.36 -144.48)" fill="#0e1f3d"/><path d="M395.28,182.34c.64-.31,28.69,6,59.28-4l2.31,24.37,3.22-28.19-65.09.74Z" transform="translate(-224.36 -144.48)" fill="#0e1f3d"/><path d="M408.32,247.08a47.42,47.42,0,0,0,20.43,3.44l-20.43,1.89Z" transform="translate(-224.36 -144.48)" fill="#f29680"/><polygon points="0.34 218.21 17.66 302.43 183.12 302.43 183.12 294.12 138.32 292.34 123.39 218.21 0.34 218.21" fill="#0e1f3d"/><path d="M296.07,448.35s-3.81-7.24,0-7.56,3.81,3.78,3.81,3.78-1.27-12,2.22-11.34,5.07,9.45,5.07,9.45.32-6.93,2.54-6.3,4.12,6.93,4.12,6.93,1-4.5,3.81-3.83,5.27,8.86,5.27,8.86Z" transform="translate(-224.36 -144.48)" fill="#f6b69e"/><ellipse cx="66.27" cy="264.48" rx="11.34" ry="10.14" fill="#fcf9de" opacity="0.37"/><ellipse cx="66.22" cy="264.81" rx="7.06" ry="6.67" fill="#fcf9de"/><path d="M301.32,334.92a6.89,6.89,0,1,1,6.94-6.89A6.92,6.92,0,0,1,301.32,334.92Zm0-10.62a3.73,3.73,0,1,0,3.76,3.73A3.75,3.75,0,0,0,301.32,324.3Z" transform="translate(-224.36 -144.48)" fill="#fff"/><polygon points="348.86 38.78 342.73 42.81 327.98 20.35 308.1 37.78 303.28 32.27 329.48 9.3 348.86 38.78" fill="#ffcc5a"/></svg>