<svg id="Layer_1" data-name="Layer 1" xmlns="http://www.w3.org/2000/svg" viewBox="0 0 642 536.31"><title>Tindev</title><path d="M711,222.24q-63.66-40.39-159.32-40.39l-354.55,0a25.68,25.68,0,0,0-21.91,12.29l-27.31,44.7a25.7,25.7,0,0,0,9.24,35.75c.62.43,1.26.82,1.91,1.19s1.26.82,1.92,1.2,1.27.83,1.93,1.2,1.27.83,1.93,1.2,1.27.83,1.93,1.2a22.41,22.41,0,0,0,1.93,1.2,21.91,21.91,0,0,0,1.93,1.2,21.47,21.47,0,0,0,1.9,1.18,21,21,0,0,0,1.88,1.17,20.59,20.59,0,0,0,1.88,1.17,20.16,20.16,0,0,0,1.88,1.17A19.74,19.74,0,0,0,180,288.9a19.3,19.3,0,0,0,1.88,1.17,18.88,18.88,0,0,0,1.88,1.17,18.46,18.46,0,0,0,1.88,1.17,18,18,0,0,0,1.88,1.17,17.62,17.62,0,0,0,1.88,1.17,17.2,17.2,0,0,0,1.88,1.17,16.81,16.81,0,0,0,1.88,1.18,16.4,16.4,0,0,0,1.88,1.18,16,16,0,0,0,1.88,1.18,15.59,15.59,0,0,0,1.88,1.18,15.19,15.19,0,0,0,1.89,1.18,14.79,14.79,0,0,0,1.92,1.2,14.39,14.39,0,0,0,1.87,1.17,14,14,0,0,0,1.87,1.17,13.63,13.63,0,0,0,1.87,1.17,13.25,13.25,0,0,0,1.87,1.17,12.89,12.89,0,0,0,1.87,1.17,12.52,12.52,0,0,0,1.87,1.17,12.16,12.16,0,0,0,1.87,1.17,11.8,11.8,0,0,0,1.87,1.17,11.46,11.46,0,0,0,1.86,1.17,11.1,11.1,0,0,0,1.86,1.17,10.76,10.76,0,0,0,1.86,1.17A10.43,10.43,0,0,0,225,317a10.1,10.1,0,0,0,1.86,1.17,9.76,9.76,0,0,0,1.86,1.17,9.44,9.44,0,0,0,1.85,1.16,9.13,9.13,0,0,0,1.84,1.15,8.82,8.82,0,0,0,1.84,1.16,8.52,8.52,0,0,0,1.84,1.16,8.23,8.23,0,0,0,1.84,1.16,7.94,7.94,0,0,0,1.84,1.16,7.65,7.65,0,0,0,1.84,1.16,7.37,7.37,0,0,0,1.84,1.16,7.1,7.1,0,0,0,1.84,1.16,6.83,6.83,0,0,0,1.84,1.16,6.56,6.56,0,0,0,1.84,1.16,6.3,6.3,0,0,0,1.84,1.16,6,6,0,0,0,1.84,1.16,5.79,5.79,0,0,0,1.85,1.16,5.54,5.54,0,0,0,1.83,1.15,5.31,5.31,0,0,0,1.83,1.15A5.08,5.08,0,0,0,260,339a4.85,4.85,0,0,0,1.83,1.15,4.64,4.64,0,0,0,1.83,1.15,4.42,4.42,0,0,0,1.83,1.15,4.21,4.21,0,0,0,1.83,1.15,4,4,0,0,0,1.83,1.15,3.81,3.81,0,0,0,1.83,1.15,3.62,3.62,0,0,0,1.83,1.15,3.43,3.43,0,0,0,1.81,1.14h0a3.26,3.26,0,0,0,1.75,1.12h.06a3.09,3.09,0,0,0,1.7,1.12l.12,0a2.93,2.93,0,0,0,1.64,1.11l.17,0a2.78,2.78,0,0,0,1.59,1.1l.23,0a2.63,2.63,0,0,0,1.53,1.09l.28,0a2.49,2.49,0,0,0,1.48,1.08l.34.06a2.35,2.35,0,0,0,1.43,1.07l.39.06a2.22,2.22,0,0,0,1.37,1.07l.44.07a2.09,2.09,0,0,0,1.32,1.06,4.37,4.37,0,0,0,.49.07,2,2,0,0,0,1.27,1.06,4.63,4.63,0,0,0,.55.07A1.86,1.86,0,0,0,294,360.6a4.87,4.87,0,0,0,.6.08,1.75,1.75,0,0,0,1.16,1.05,5.11,5.11,0,0,0,.66.08,1.65,1.65,0,0,0,1.11,1,5.57,5.57,0,0,0,.71.08,1.55,1.55,0,0,0,1.05,1,6.06,6.06,0,0,0,.77.08,1.46,1.46,0,0,0,1,1,6.56,6.56,0,0,0,.83.08,1.38,1.38,0,0,0,.93,1,7.07,7.07,0,0,0,.89.08,1.3,1.3,0,0,0,.88,1,7.63,7.63,0,0,0,.95.08c.14.57.4.94.82,1a8.23,8.23,0,0,0,1,.08,2.39,2.39,0,0,0,.1.36L207.86,651.26a50.2,50.2,0,0,0,47.35,66.9H310q129.21,0,241.64-51.86,122-56.42,186-159,48.39-77.76,48.39-147.51Q786.06,269.88,711,222.24ZM452.73,401.47l.1-.8h-.5l.08-.8h-.48l.05-.8h-.46l0-.8h-.43v-.8h-.41l0-.8h-.38l0-.8h-.35l-.07-.8h-.17c0-.19-.08-.37-.13-.54s-.08-.36-.13-.52-.08-.36-.12-.53-.07-.31-.1-.46-.06-.33-.1-.48,0-.22-.07-.33l-.06-.33v-.26c0-.11,0-.22,0-.33v-.07s0-.09,0-.14,0-.38,0-.57,0-.13,0-.2,0-.28,0-.42h19.24q18.17,0,29.12,5.18a32,32,0,0,1,6.2,3.79c5.53,4.38,9.22,10.63,11.1,18.7A60.65,60.65,0,0,1,516,432.06a54.46,54.46,0,0,1-2.52,14.84A119.43,119.43,0,0,1,505,467.06a91.38,91.38,0,0,1-12.94,18.85,114,114,0,0,1-46.87,30.88,86.69,86.69,0,0,1-29,4.57l31.57-89.09c.06-.17,7.27-21,7.09-21l1.38-4.17h-.67l.25-.8h-.65l.23-.8h-.63l.21-.8h-.61l.18-.8h-.59l.16-.8h-.57l.14-.8h-.55l.12-.8Z" transform="translate(-144.07 -181.85)" fill="#bcc1d0"/></svg>